# xmcd
#
# Track frame offsets: 
#        183
#        6108
#        29333
#        50118
#        64525
#        83173
#        111770
#        131270
#        152615
#        171845
#
# Disc length: 2380 seconds
#
# Revision: 0
# Processed by: cddbd v1.4PL0 Copyright (c) Steve Scherf et al.
# Submitted via: ExactAudioCopy v0.90b2
#
DISCID=76094a0a
DTITLE=Muddy Waters - Live in Paris, 1968
DYEAR=1968
DGENRE=Blues
TTITLE0=présentation andré francis
TTITLE1=back to the chicken shack
TTITLE2=train fare home
TTITLE3=hoochie coochie man
TTITLE4=blow wind blow
TTITLE5=long distance call
TTITLE6=ring up
TTITLE7=worried life blues
TTITLE8=got my mojo working
TTITLE9=rappel
EXTD=
EXTT0=
EXTT1=
EXTT2=
EXTT3=
EXTT4=
EXTT5=
EXTT6=
EXTT7=
EXTT8=
EXTT9=
PLAYORDER=
